# xmcd
#
# Track frame offsets: 
#        150
#        11406
#        25167
#        37519
#        52923
#        68614
#        86376
#        99290
#        112458
#        126364
#        139514
#        155796
#
# Disc length: 2227 seconds
#
# Revision: 0
# Processed by: cddbd v1.5.2PL0 Copyright (c) Steve Scherf et al.
# Submitted via: ExactAudioCopy v0.99pb5
#
DISCID=8e08b10c
DTITLE=Dottie Jack - Texan In A Stetson
DYEAR=2006
DGENRE=Country
TTITLE0=Texan in a Stetson
TTITLE1=I'm Not Over You
TTITLE2=I'll Save Some Blues For You
TTITLE3=Sentimental Ole Yoy
TTITLE4=Blanket On The Ground
TTITLE5=Sure Had A Good Time
TTITLE6=Jealous Heart
TTITLE7=It Was Just Like Takin' Candy From a Baby
TTITLE8=Love and Honor
TTITLE9=It Wasn't God Who Made Honky Tonk Angels
TTITLE10=I'll Be A Lady Tomorrow
TTITLE11=Tears Will Be The Chaser For Your Wine
EXTD=
EXTT0=
EXTT1=
EXTT2=
EXTT3=
EXTT4=
EXTT5=
EXTT6=
EXTT7=
EXTT8=
EXTT9=
EXTT10=
EXTT11=
PLAYORDER=
